<mxfile host="app.diagrams.net" modified="2023-10-11T11:10:28.905Z" agent="Mozilla/5.0 (Windows NT 10.0; Win64; x64) AppleWebKit/537.36 (KHTML, like Gecko) Chrome/117.0.0.0 Safari/537.36" etag="w2YH31wVxtsAeJ0lPXOo" version="22.0.4" type="github">
  <diagram name="1 oldal" id="HCi74r8AC1qW8FaivY9Q">
    <mxGraphModel dx="1434" dy="790" grid="1" gridSize="10" guides="1" tooltips="1" connect="1" arrows="1" fold="1" page="1" pageScale="1" pageWidth="10000" pageHeight="10000" math="0" shadow="0">
      <root>
        <mxCell id="0" />
        <mxCell id="1" parent="0" />
        <mxCell id="O21lmYaWEhnW11hVJFyw-5" value="" style="verticalLabelPosition=bottom;verticalAlign=top;html=1;shape=mxgraph.basic.patternFillRect;fillStyle=vert;step=5;fillStrokeWidth=0.2;fillStrokeColor=#dddddd;fillColor=none;" vertex="1" parent="1">
          <mxGeometry x="390" y="340" width="570" height="180" as="geometry" />
        </mxCell>
        <mxCell id="O21lmYaWEhnW11hVJFyw-4" value="" style="verticalLabelPosition=bottom;verticalAlign=top;html=1;shape=mxgraph.basic.patternFillRect;fillStyle=vert;step=5;fillStrokeWidth=0.2;fillStrokeColor=#dddddd;fillColor=none;" vertex="1" parent="1">
          <mxGeometry x="390" y="520" width="570" height="290" as="geometry" />
        </mxCell>
        <mxCell id="BgKfAN9wwZw_LsV1WhNB-7" style="edgeStyle=orthogonalEdgeStyle;rounded=0;orthogonalLoop=1;jettySize=auto;html=1;exitX=0.5;exitY=1;exitDx=0;exitDy=0;entryX=0.5;entryY=0;entryDx=0;entryDy=0;" parent="1" source="BgKfAN9wwZw_LsV1WhNB-5" target="BgKfAN9wwZw_LsV1WhNB-6" edge="1">
          <mxGeometry relative="1" as="geometry" />
        </mxCell>
        <mxCell id="BgKfAN9wwZw_LsV1WhNB-5" value="Budapest" style="rounded=0;whiteSpace=wrap;html=1;" parent="1" vertex="1">
          <mxGeometry x="630" y="170" width="120" height="60" as="geometry" />
        </mxCell>
        <mxCell id="BgKfAN9wwZw_LsV1WhNB-12" style="edgeStyle=orthogonalEdgeStyle;rounded=0;orthogonalLoop=1;jettySize=auto;html=1;entryX=1;entryY=0.5;entryDx=0;entryDy=0;" parent="1" source="BgKfAN9wwZw_LsV1WhNB-6" target="BgKfAN9wwZw_LsV1WhNB-10" edge="1">
          <mxGeometry relative="1" as="geometry" />
        </mxCell>
        <mxCell id="BgKfAN9wwZw_LsV1WhNB-13" style="edgeStyle=orthogonalEdgeStyle;rounded=0;orthogonalLoop=1;jettySize=auto;html=1;exitX=0.5;exitY=1;exitDx=0;exitDy=0;entryX=0;entryY=0.5;entryDx=0;entryDy=0;" parent="1" source="BgKfAN9wwZw_LsV1WhNB-6" target="BgKfAN9wwZw_LsV1WhNB-11" edge="1">
          <mxGeometry relative="1" as="geometry" />
        </mxCell>
        <mxCell id="BgKfAN9wwZw_LsV1WhNB-6" value="Séta az állomásra,&lt;br&gt;megtudjuk hogy mennyibe kerül a jegy" style="rounded=0;whiteSpace=wrap;html=1;" parent="1" vertex="1">
          <mxGeometry x="630" y="270" width="120" height="60" as="geometry" />
        </mxCell>
        <mxCell id="BgKfAN9wwZw_LsV1WhNB-19" style="edgeStyle=orthogonalEdgeStyle;rounded=0;orthogonalLoop=1;jettySize=auto;html=1;exitX=0.5;exitY=1;exitDx=0;exitDy=0;entryX=0.5;entryY=0;entryDx=0;entryDy=0;" parent="1" source="BgKfAN9wwZw_LsV1WhNB-10" target="BgKfAN9wwZw_LsV1WhNB-18" edge="1">
          <mxGeometry relative="1" as="geometry" />
        </mxCell>
        <mxCell id="BgKfAN9wwZw_LsV1WhNB-10" value="Van elég: felszállunk" style="rounded=0;whiteSpace=wrap;html=1;" parent="1" vertex="1">
          <mxGeometry x="510" y="350" width="120" height="60" as="geometry" />
        </mxCell>
        <mxCell id="BgKfAN9wwZw_LsV1WhNB-30" style="edgeStyle=orthogonalEdgeStyle;rounded=0;orthogonalLoop=1;jettySize=auto;html=1;exitX=0.5;exitY=1;exitDx=0;exitDy=0;entryX=0.5;entryY=0;entryDx=0;entryDy=0;" parent="1" source="BgKfAN9wwZw_LsV1WhNB-11" target="BgKfAN9wwZw_LsV1WhNB-29" edge="1">
          <mxGeometry relative="1" as="geometry" />
        </mxCell>
        <mxCell id="BgKfAN9wwZw_LsV1WhNB-11" value="Nincs" style="rounded=0;whiteSpace=wrap;html=1;" parent="1" vertex="1">
          <mxGeometry x="750" y="350" width="120" height="60" as="geometry" />
        </mxCell>
        <mxCell id="BgKfAN9wwZw_LsV1WhNB-21" style="edgeStyle=orthogonalEdgeStyle;rounded=0;orthogonalLoop=1;jettySize=auto;html=1;entryX=0;entryY=0.5;entryDx=0;entryDy=0;" parent="1" source="BgKfAN9wwZw_LsV1WhNB-18" target="BgKfAN9wwZw_LsV1WhNB-20" edge="1">
          <mxGeometry relative="1" as="geometry" />
        </mxCell>
        <mxCell id="BgKfAN9wwZw_LsV1WhNB-18" value="Vonatmenü" style="rounded=0;whiteSpace=wrap;html=1;" parent="1" vertex="1">
          <mxGeometry x="510" y="540" width="120" height="60" as="geometry" />
        </mxCell>
        <mxCell id="BgKfAN9wwZw_LsV1WhNB-20" value="Megálló" style="rounded=0;whiteSpace=wrap;html=1;" parent="1" vertex="1">
          <mxGeometry x="700" y="540" width="120" height="60" as="geometry" />
        </mxCell>
        <mxCell id="BgKfAN9wwZw_LsV1WhNB-29" value="Menü: Játék" style="rounded=0;whiteSpace=wrap;html=1;" parent="1" vertex="1">
          <mxGeometry x="750" y="450" width="120" height="60" as="geometry" />
        </mxCell>
        <mxCell id="O21lmYaWEhnW11hVJFyw-6" value="Loop" style="rounded=0;whiteSpace=wrap;html=1;" vertex="1" parent="1">
          <mxGeometry x="1090" y="400" width="120" height="60" as="geometry" />
        </mxCell>
        <mxCell id="O21lmYaWEhnW11hVJFyw-7" value="Loopol minden megállónál" style="rounded=0;whiteSpace=wrap;html=1;" vertex="1" parent="1">
          <mxGeometry x="1090" y="635" width="120" height="60" as="geometry" />
        </mxCell>
        <mxCell id="O21lmYaWEhnW11hVJFyw-8" style="edgeStyle=orthogonalEdgeStyle;rounded=0;orthogonalLoop=1;jettySize=auto;html=1;exitX=0;exitY=0.5;exitDx=0;exitDy=0;entryX=1;entryY=0.5;entryDx=0;entryDy=0;entryPerimeter=0;" edge="1" parent="1" source="O21lmYaWEhnW11hVJFyw-6" target="O21lmYaWEhnW11hVJFyw-5">
          <mxGeometry relative="1" as="geometry" />
        </mxCell>
        <mxCell id="O21lmYaWEhnW11hVJFyw-9" style="edgeStyle=orthogonalEdgeStyle;rounded=0;orthogonalLoop=1;jettySize=auto;html=1;exitX=0;exitY=0.5;exitDx=0;exitDy=0;entryX=1;entryY=0.5;entryDx=0;entryDy=0;entryPerimeter=0;" edge="1" parent="1" source="O21lmYaWEhnW11hVJFyw-7" target="O21lmYaWEhnW11hVJFyw-4">
          <mxGeometry relative="1" as="geometry" />
        </mxCell>
        <mxCell id="O21lmYaWEhnW11hVJFyw-11" value="Vonat" style="rounded=0;whiteSpace=wrap;html=1;" vertex="1" parent="1">
          <mxGeometry x="700" y="630" width="120" height="60" as="geometry" />
        </mxCell>
        <mxCell id="O21lmYaWEhnW11hVJFyw-12" value="" style="rounded=0;whiteSpace=wrap;html=1;" vertex="1" parent="1">
          <mxGeometry x="510" y="630" width="120" height="60" as="geometry" />
        </mxCell>
      </root>
    </mxGraphModel>
  </diagram>
</mxfile>
